<svg width="160" height="174" viewBox="0 0 160 174" fill="none" xmlns="http://www.w3.org/2000/svg">
<rect width="160" height="174" rx="8" fill="white"/>
<path d="M37.625 72.3438V28.8438C37.625 28.6366 37.7929 28.4688 38 28.4688H42.875M37.625 95.5938V85.0938H72.7812V114.25M37.625 114.25V121.094M46.7188 145.469H38C37.7929 145.469 37.625 145.301 37.625 145.094V121.094M65.1875 145.469H91.9062M98.6562 145.469H91.9062M117.312 145.469H132.406C132.613 145.469 132.781 145.301 132.781 145.094V131.219M132.781 112.469V99.5312M132.781 80.4062V67.0938M132.781 48.4375V28.8437C132.781 28.6366 132.613 28.4688 132.406 28.4688H67.3438M44 57.8125H66.9688C67.1759 57.8125 67.3438 57.6446 67.3438 57.4375V28.4688M67.3438 28.4688H61.8125M73.8125 57.9062H91.9062M91.9062 57.9062V28.4688M91.9062 57.9062V83.0312M37.625 121.094H72.7812M79.0625 121.094H91.9062V145.469" stroke="#333333" stroke-width="1.125"/>
<path d="M43.9063 28.375H60.3125M99.875 145.562H116.281M47.9375 145.562H64.3438M37.625 112.844L37.625 96.4375M132.875 130.469V114.062M132.875 98.2188V81.8125M132.875 65.9688V49.5625" stroke="#BDBDBD" stroke-width="2.625"/>
<g clip-path="url(#clip0_439_10053)">
<g opacity="0.5">
<path d="M36.8477 84.4607L36.8477 72.7895" stroke="#333333" stroke-width="0.757687" stroke-miterlimit="10"/>
<path d="M39.0122 72.7895L39.0122 84.4607" stroke="#333333" stroke-width="0.757687" stroke-miterlimit="10"/>
<path d="M39.0122 83.0464C43.8836 83.0464 47.8315 79.0749 47.8315 74.1765L39.0122 74.1765L39.0122 83.0464Z" stroke="#333333" stroke-width="0.50511" stroke-miterlimit="10" stroke-linecap="square"/>
<path d="M36.8486 73.6326L36.8486 83.5905L39.0118 83.5905L39.0118 73.6326L36.8486 73.6326Z" stroke="#333333" stroke-width="0.50511" stroke-miterlimit="10" stroke-linecap="square"/>
<path d="M39.0113 83.5906L36.8481 83.5906L36.8481 73.6326L39.0113 73.6326L39.0113 83.5906Z" fill="white"/>
</g>
</g>
<g clip-path="url(#clip1_439_10053)">
<g opacity="0.5">
<path d="M37.1758 57.1802L45.0121 57.1802" stroke="#333333" stroke-width="0.60615" stroke-miterlimit="10"/>
<path d="M45.0121 58.656L37.1758 58.656" stroke="#333333" stroke-width="0.60615" stroke-miterlimit="10"/>
<path d="M38.1251 58.6555C38.1251 61.9769 40.7917 64.6687 44.0806 64.6687L44.0806 58.6555L38.1251 58.6555Z" stroke="#333333" stroke-width="0.404088" stroke-miterlimit="10" stroke-linecap="square"/>
<path d="M44.4458 57.1807L37.7597 57.1807L37.7597 58.6555L44.4458 58.6555L44.4458 57.1807Z" stroke="#333333" stroke-width="0.404088" stroke-miterlimit="10" stroke-linecap="square"/>
<path d="M37.7603 58.6555L37.7603 57.1807L44.4463 57.1807L44.4463 58.6555L37.7603 58.6555Z" fill="white"/>
</g>
</g>
<g clip-path="url(#clip2_439_10053)">
<g opacity="0.5">
<path d="M66.9883 57.1802L74.8246 57.1802" stroke="#333333" stroke-width="0.60615" stroke-miterlimit="10"/>
<path d="M74.8246 58.656L66.9883 58.656" stroke="#333333" stroke-width="0.60615" stroke-miterlimit="10"/>
<path d="M67.9376 58.6555C67.9376 61.9769 70.6042 64.6687 73.8931 64.6687L73.8931 58.6555L67.9376 58.6555Z" stroke="#333333" stroke-width="0.404088" stroke-miterlimit="10" stroke-linecap="square"/>
<path d="M74.2583 57.1807L67.5722 57.1807L67.5722 58.6555L74.2583 58.6555L74.2583 57.1807Z" stroke="#333333" stroke-width="0.404088" stroke-miterlimit="10" stroke-linecap="square"/>
<path d="M67.5728 58.6555L67.5728 57.1807L74.2588 57.1807L74.2588 58.6555L67.5728 58.6555Z" fill="white"/>
</g>
</g>
<g clip-path="url(#clip3_439_10053)">
<g opacity="0.5">
<path d="M71.4883 120.368L79.3246 120.368" stroke="#333333" stroke-width="0.60615" stroke-miterlimit="10"/>
<path d="M79.3246 121.844L71.4883 121.844" stroke="#333333" stroke-width="0.60615" stroke-miterlimit="10"/>
<path d="M72.4376 121.843C72.4376 125.164 75.1042 127.856 78.3931 127.856L78.3931 121.843L72.4376 121.843Z" stroke="#333333" stroke-width="0.404088" stroke-miterlimit="10" stroke-linecap="square"/>
<path d="M78.7583 120.368L72.0722 120.368L72.0722 121.843L78.7583 121.843L78.7583 120.368Z" stroke="#333333" stroke-width="0.404088" stroke-miterlimit="10" stroke-linecap="square"/>
<path d="M72.0728 121.843L72.0728 120.368L78.7588 120.368L78.7588 121.843L72.0728 121.843Z" fill="white"/>
</g>
</g>
<g clip-path="url(#clip4_439_10053)">
<g opacity="0.5">
<path d="M71.6802 121.074L71.6802 113.238" stroke="#333333" stroke-width="0.60615" stroke-miterlimit="10"/>
<path d="M73.1562 113.238L73.1562 121.074" stroke="#333333" stroke-width="0.60615" stroke-miterlimit="10"/>
<path d="M73.1558 120.125C76.4771 120.125 79.1689 117.458 79.1689 114.169L73.1558 114.169L73.1558 120.125Z" stroke="#333333" stroke-width="0.404088" stroke-miterlimit="10" stroke-linecap="square"/>
<path d="M71.6807 113.804L71.6807 120.49L73.1555 120.49L73.1555 113.804L71.6807 113.804Z" stroke="#333333" stroke-width="0.404088" stroke-miterlimit="10" stroke-linecap="square"/>
<path d="M73.1555 120.49L71.6807 120.49L71.6807 113.804L73.1555 113.804L73.1555 120.49Z" fill="white"/>
</g>
</g>
<path d="M33.5 84.25L32.375 84.25C32.1679 84.25 32 84.0821 32 83.875L32 28.375C32 28.1679 32.1679 28 32.375 28H33.5" stroke="#F2F2F2" stroke-width="0.375"/>
<rect width="5" height="9" transform="translate(29.8438 51.8125)" fill="#F2F2F2"/>
<path d="M33.0257 58.8025C33.0297 58.8065 33.0337 58.8075 33.0377 58.8055C33.0417 58.8035 33.0437 58.7995 33.0437 58.7935L33.0437 58.1365C33.0437 58.1265 33.0477 58.1185 33.0557 58.1125C33.0617 58.1045 33.0697 58.1005 33.0797 58.1005L33.3077 58.1005C33.3177 58.1005 33.3267 58.1045 33.3347 58.1125C33.3407 58.1185 33.3437 58.1265 33.3437 58.1365L33.3437 59.1835C33.3437 59.1935 33.3407 59.2025 33.3347 59.2105C33.3267 59.2165 33.3177 59.2195 33.3077 59.2195L33.0677 59.2195C33.0497 59.2195 33.0347 59.2145 33.0227 59.2045L32.8637 59.0875C32.7597 59.0095 32.6537 58.9335 32.5457 58.8595C32.4377 58.7835 32.3407 58.7195 32.2547 58.6675C32.0627 58.5515 31.9037 58.4935 31.7777 58.4935C31.6977 58.4935 31.6347 58.5115 31.5887 58.5475C31.5427 58.5815 31.5197 58.6275 31.5197 58.6855C31.5197 58.7435 31.5427 58.7895 31.5887 58.8235C31.6327 58.8575 31.6917 58.8735 31.7657 58.8715L31.8827 58.8715C31.8927 58.8715 31.9017 58.8755 31.9097 58.8835C31.9157 58.8895 31.9187 58.8975 31.9187 58.9075L31.9187 59.1895C31.9187 59.1995 31.9157 59.2085 31.9097 59.2165C31.9017 59.2225 31.8927 59.2255 31.8827 59.2255L31.7537 59.2255C31.5937 59.2175 31.4647 59.1635 31.3667 59.0635C31.2687 58.9615 31.2197 58.8305 31.2197 58.6705C31.2197 58.5125 31.2717 58.3855 31.3757 58.2895C31.4777 58.1915 31.6127 58.1425 31.7807 58.1425C31.8807 58.1425 31.9797 58.1595 32.0777 58.1935C32.1757 58.2275 32.2807 58.2815 32.3927 58.3555C32.4727 58.4055 32.5607 58.4655 32.6567 58.5355C32.7527 58.6035 32.8157 58.6485 32.8457 58.6705C32.9257 58.7305 32.9857 58.7745 33.0257 58.8025ZM32.4827 56.7451C32.4827 56.7351 32.4867 56.7271 32.4947 56.7211C32.5007 56.7131 32.5087 56.7091 32.5187 56.7091L32.7617 56.7091C32.7717 56.7091 32.7807 56.7131 32.7887 56.7211C32.7947 56.7271 32.7977 56.7351 32.7977 56.7451L32.7977 56.8351C32.7977 56.8451 32.8027 56.8501 32.8127 56.8501L33.3077 56.8501C33.3177 56.8501 33.3267 56.8541 33.3347 56.8621C33.3407 56.8681 33.3437 56.8761 33.3437 56.8861L33.3437 57.1621C33.3437 57.1721 33.3407 57.1811 33.3347 57.1891C33.3267 57.1951 33.3177 57.1981 33.3077 57.1981L32.8127 57.1981C32.8027 57.1981 32.7977 57.2031 32.7977 57.2131L32.7977 57.9511C32.7977 57.9611 32.7947 57.9701 32.7887 57.9781C32.7807 57.9841 32.7717 57.9871 32.7617 57.9871L32.5667 57.9871C32.5487 57.9871 32.5337 57.9851 32.5217 57.9811L31.2737 57.5641C31.2537 57.5581 31.2437 57.5451 31.2437 57.5251L31.2437 57.2251C31.2437 57.2131 31.2477 57.2041 31.2557 57.1981C31.2617 57.1921 31.2717 57.1911 31.2857 57.1951L32.4647 57.5791C32.4767 57.5811 32.4827 57.5771 32.4827 57.5671L32.4827 57.2131C32.4827 57.2031 32.4777 57.1981 32.4677 57.1981L32.1077 57.1981C32.0977 57.1981 32.0897 57.1951 32.0837 57.1891C32.0757 57.1811 32.0717 57.1721 32.0717 57.1621L32.0717 56.8861C32.0717 56.8761 32.0757 56.8681 32.0837 56.8621C32.0897 56.8541 32.0977 56.8501 32.1077 56.8501L32.4677 56.8501C32.4777 56.8501 32.4827 56.8451 32.4827 56.8351L32.4827 56.7451ZM31.2437 56.2081C31.2437 56.1961 31.2477 56.1881 31.2557 56.1841C31.2617 56.1781 31.2717 56.1771 31.2857 56.1811L31.8677 56.3761C31.8877 56.3821 31.8977 56.3951 31.8977 56.4151L31.8977 56.6221C31.8977 56.6481 31.8847 56.6581 31.8587 56.6521L31.2767 56.5261C31.2547 56.5221 31.2437 56.5091 31.2437 56.4871L31.2437 56.2081ZM33.3767 55.494C33.3767 55.662 33.3237 55.797 33.2177 55.899C33.1097 56.001 32.9687 56.052 32.7947 56.052L31.7927 56.052C31.6187 56.052 31.4787 56.001 31.3727 55.899C31.2647 55.797 31.2107 55.662 31.2107 55.494C31.2107 55.324 31.2647 55.188 31.3727 55.086C31.4787 54.982 31.6187 54.93 31.7927 54.93L32.7947 54.93C32.9687 54.93 33.1097 54.982 33.2177 55.086C33.3237 55.188 33.3767 55.324 33.3767 55.494ZM33.0737 55.494C33.0737 55.428 33.0507 55.376 33.0047 55.338C32.9567 55.298 32.8937 55.278 32.8157 55.278L31.7717 55.278C31.6937 55.278 31.6317 55.298 31.5857 55.338C31.5377 55.376 31.5137 55.428 31.5137 55.494C31.5137 55.558 31.5377 55.609 31.5857 55.647C31.6317 55.685 31.6937 55.704 31.7717 55.704L32.8157 55.704C32.8937 55.704 32.9567 55.685 33.0047 55.647C33.0507 55.609 33.0737 55.558 33.0737 55.494ZM31.2437 54.3624C31.2437 54.3504 31.2477 54.3424 31.2557 54.3384C31.2617 54.3324 31.2717 54.3314 31.2857 54.3354L31.8677 54.5304C31.8877 54.5364 31.8977 54.5494 31.8977 54.5694L31.8977 54.7764C31.8977 54.8024 31.8847 54.8124 31.8587 54.8064L31.2767 54.6804C31.2547 54.6764 31.2437 54.6634 31.2437 54.6414L31.2437 54.3624ZM31.2437 53.8673C31.2437 53.8553 31.2477 53.8473 31.2557 53.8433C31.2617 53.8373 31.2717 53.8363 31.2857 53.8403L31.8677 54.0353C31.8877 54.0413 31.8977 54.0543 31.8977 54.0743L31.8977 54.2813C31.8977 54.3073 31.8847 54.3173 31.8587 54.3113L31.2767 54.1853C31.2547 54.1813 31.2437 54.1683 31.2437 54.1463L31.2437 53.8673Z" fill="#F2F2F2"/>
<path d="M33.5 85.75H32.375C32.1679 85.75 32 85.9179 32 86.125L32 145C32 145.207 32.1679 145.375 32.375 145.375L33.5 145.375" stroke="#F2F2F2" stroke-width="0.375"/>
<rect width="5" height="9" transform="translate(29.8438 112.938)" fill="#F2F2F2"/>
<path d="M33.0257 119.927C33.0297 119.931 33.0337 119.932 33.0377 119.93C33.0417 119.928 33.0437 119.924 33.0437 119.918L33.0437 119.261C33.0437 119.251 33.0477 119.243 33.0557 119.237C33.0617 119.229 33.0697 119.225 33.0797 119.225L33.3077 119.225C33.3177 119.225 33.3267 119.229 33.3347 119.237C33.3407 119.243 33.3437 119.251 33.3437 119.261L33.3437 120.308C33.3437 120.318 33.3407 120.327 33.3347 120.335C33.3267 120.341 33.3177 120.344 33.3077 120.344L33.0677 120.344C33.0497 120.344 33.0347 120.339 33.0227 120.329L32.8637 120.212C32.7597 120.134 32.6537 120.058 32.5457 119.984C32.4377 119.908 32.3407 119.844 32.2547 119.792C32.0627 119.676 31.9037 119.618 31.7777 119.618C31.6977 119.618 31.6347 119.636 31.5887 119.672C31.5427 119.706 31.5197 119.752 31.5197 119.81C31.5197 119.868 31.5427 119.914 31.5887 119.948C31.6327 119.982 31.6917 119.998 31.7657 119.996L31.8827 119.996C31.8927 119.996 31.9017 120 31.9097 120.008C31.9157 120.014 31.9187 120.022 31.9187 120.032L31.9187 120.314C31.9187 120.324 31.9157 120.333 31.9097 120.341C31.9017 120.347 31.8927 120.35 31.8827 120.35L31.7537 120.35C31.5937 120.342 31.4647 120.288 31.3667 120.188C31.2687 120.086 31.2197 119.955 31.2197 119.795C31.2197 119.637 31.2717 119.51 31.3757 119.414C31.4777 119.316 31.6127 119.267 31.7807 119.267C31.8807 119.267 31.9797 119.284 32.0777 119.318C32.1757 119.352 32.2807 119.406 32.3927 119.48C32.4727 119.53 32.5607 119.59 32.6567 119.66C32.7527 119.728 32.8157 119.773 32.8457 119.795C32.9257 119.855 32.9857 119.899 33.0257 119.927ZM32.4827 117.87C32.4827 117.86 32.4867 117.852 32.4947 117.846C32.5007 117.838 32.5087 117.834 32.5187 117.834L32.7617 117.834C32.7717 117.834 32.7807 117.838 32.7887 117.846C32.7947 117.852 32.7977 117.86 32.7977 117.87L32.7977 117.96C32.7977 117.97 32.8027 117.975 32.8127 117.975L33.3077 117.975C33.3177 117.975 33.3267 117.979 33.3347 117.987C33.3407 117.993 33.3437 118.001 33.3437 118.011L33.3437 118.287C33.3437 118.297 33.3407 118.306 33.3347 118.314C33.3267 118.32 33.3177 118.323 33.3077 118.323L32.8127 118.323C32.8027 118.323 32.7977 118.328 32.7977 118.338L32.7977 119.076C32.7977 119.086 32.7947 119.095 32.7887 119.103C32.7807 119.109 32.7717 119.112 32.7617 119.112L32.5667 119.112C32.5487 119.112 32.5337 119.11 32.5217 119.106L31.2737 118.689C31.2537 118.683 31.2437 118.67 31.2437 118.65L31.2437 118.35C31.2437 118.338 31.2477 118.329 31.2557 118.323C31.2617 118.317 31.2717 118.316 31.2857 118.32L32.4647 118.704C32.4767 118.706 32.4827 118.702 32.4827 118.692L32.4827 118.338C32.4827 118.328 32.4777 118.323 32.4677 118.323L32.1077 118.323C32.0977 118.323 32.0897 118.32 32.0837 118.314C32.0757 118.306 32.0717 118.297 32.0717 118.287L32.0717 118.011C32.0717 118.001 32.0757 117.993 32.0837 117.987C32.0897 117.979 32.0977 117.975 32.1077 117.975L32.4677 117.975C32.4777 117.975 32.4827 117.97 32.4827 117.96L32.4827 117.87ZM31.2437 117.333C31.2437 117.321 31.2477 117.313 31.2557 117.309C31.2617 117.303 31.2717 117.302 31.2857 117.306L31.8677 117.501C31.8877 117.507 31.8977 117.52 31.8977 117.54L31.8977 117.747C31.8977 117.773 31.8847 117.783 31.8587 117.777L31.2767 117.651C31.2547 117.647 31.2437 117.634 31.2437 117.612L31.2437 117.333ZM33.3767 116.619C33.3767 116.787 33.3237 116.922 33.2177 117.024C33.1097 117.126 32.9687 117.177 32.7947 117.177L31.7927 117.177C31.6187 117.177 31.4787 117.126 31.3727 117.024C31.2647 116.922 31.2107 116.787 31.2107 116.619C31.2107 116.449 31.2647 116.313 31.3727 116.211C31.4787 116.107 31.6187 116.055 31.7927 116.055L32.7947 116.055C32.9687 116.055 33.1097 116.107 33.2177 116.211C33.3237 116.313 33.3767 116.449 33.3767 116.619ZM33.0737 116.619C33.0737 116.553 33.0507 116.501 33.0047 116.463C32.9567 116.423 32.8937 116.403 32.8157 116.403L31.7717 116.403C31.6937 116.403 31.6317 116.423 31.5857 116.463C31.5377 116.501 31.5137 116.553 31.5137 116.619C31.5137 116.683 31.5377 116.734 31.5857 116.772C31.6317 116.81 31.6937 116.829 31.7717 116.829L32.8157 116.829C32.8937 116.829 32.9567 116.81 33.0047 116.772C33.0507 116.734 33.0737 116.683 33.0737 116.619ZM31.2437 115.487C31.2437 115.475 31.2477 115.467 31.2557 115.463C31.2617 115.457 31.2717 115.456 31.2857 115.46L31.8677 115.655C31.8877 115.661 31.8977 115.674 31.8977 115.694L31.8977 115.901C31.8977 115.927 31.8847 115.937 31.8587 115.931L31.2767 115.805C31.2547 115.801 31.2437 115.788 31.2437 115.766L31.2437 115.487ZM31.2437 114.992C31.2437 114.98 31.2477 114.972 31.2557 114.968C31.2617 114.962 31.2717 114.961 31.2857 114.965L31.8677 115.16C31.8877 115.166 31.8977 115.179 31.8977 115.199L31.8977 115.406C31.8977 115.432 31.8847 115.442 31.8587 115.436L31.2767 115.31C31.2547 115.306 31.2437 115.293 31.2437 115.271L31.2437 114.992Z" fill="#F2F2F2"/>
<defs>
<clipPath id="clip0_439_10053">
<rect width="13.125" height="12.375" fill="white" transform="matrix(4.37114e-08 -1 -1 -4.37114e-08 48.5 85.1875)"/>
</clipPath>
<clipPath id="clip1_439_10053">
<rect width="8.8125" height="8.4375" fill="white" transform="matrix(1 8.74228e-08 8.74228e-08 -1 36.6875 65.125)"/>
</clipPath>
<clipPath id="clip2_439_10053">
<rect width="8.8125" height="8.4375" fill="white" transform="matrix(1 8.74228e-08 8.74228e-08 -1 66.5 65.125)"/>
</clipPath>
<clipPath id="clip3_439_10053">
<rect width="8.8125" height="8.4375" fill="white" transform="matrix(1 8.74228e-08 8.74228e-08 -1 71 128.312)"/>
</clipPath>
<clipPath id="clip4_439_10053">
<rect width="8.8125" height="8.4375" fill="white" transform="matrix(-4.37114e-08 -1 -1 4.37114e-08 79.625 121.562)"/>
</clipPath>
</defs>
</svg>
