<svg width="249" height="192" viewBox="0 0 249 192" fill="none" xmlns="http://www.w3.org/2000/svg">
<rect x="0.44" y="0.44" width="247.72" height="190.52" rx="7.56" stroke="#E0E0E0" stroke-width="0.88"/>
<path d="M108.419 142.072L60.5687 142.072C60.3409 142.072 60.1562 141.887 60.1562 141.659L60.1562 136.297M133.994 142.072L122.444 142.072L122.444 103.4L154.516 103.4M154.516 142.072L162.044 142.072M188.856 132.069L188.856 141.659C188.856 141.887 188.672 142.072 188.444 142.072L162.044 142.072M188.856 111.753L188.856 82.3624M188.856 74.9374L188.856 82.3624M188.856 54.4155L188.856 37.8124C188.856 37.5846 188.672 37.3999 188.444 37.3999L173.181 37.3999M152.556 37.3999L138.325 37.3999M117.287 37.3999L102.644 37.3999M82.1219 37.3999L60.5687 37.3999C60.3409 37.3999 60.1562 37.5846 60.1562 37.8124L60.1562 109.381M92.4344 135.059L92.4344 109.794C92.4344 109.566 92.2497 109.381 92.0219 109.381L60.1562 109.381M60.1562 109.381L60.1562 115.466M92.5375 102.266L92.5375 82.3624M92.5375 82.3624L60.1562 82.3624M92.5375 82.3624L120.175 82.3624M162.044 142.072L162.044 103.4M162.044 96.4905L162.044 82.3624L188.856 82.3624" stroke="#333333" stroke-width="1.2375"/>
<path d="M60.0532 135.162L60.0532 117.116M188.959 73.5968L188.959 55.5499M188.959 130.728L188.959 112.681M152.969 142.072L134.922 142.072M172.356 37.2968L154.309 37.2968M136.881 37.2968L118.834 37.2968M101.406 37.2968L83.3595 37.2968" stroke="#BDBDBD" stroke-width="2.8875"/>
<g clip-path="url(#clip0_664_3414)">
<g opacity="0.5">
<path d="M121.748 142.927H108.91" stroke="#333333" stroke-width="0.833456" stroke-miterlimit="10"/>
<path d="M108.91 140.546H121.748" stroke="#333333" stroke-width="0.833456" stroke-miterlimit="10"/>
<path d="M120.192 140.546C120.192 135.188 115.823 130.845 110.435 130.845V140.546H120.192Z" stroke="#333333" stroke-width="0.555621" stroke-miterlimit="10" stroke-linecap="square"/>
<path d="M109.837 142.926H120.791V140.546H109.837V142.926Z" stroke="#333333" stroke-width="0.555621" stroke-miterlimit="10" stroke-linecap="square"/>
<path d="M120.791 140.547V142.926H109.837V140.547H120.791Z" fill="white"/>
</g>
</g>
<g clip-path="url(#clip1_664_3414)">
<g opacity="0.5">
<path d="M91.7393 142.566L91.7393 133.946" stroke="#333333" stroke-width="0.666765" stroke-miterlimit="10"/>
<path d="M93.3628 133.946L93.3628 142.566" stroke="#333333" stroke-width="0.666765" stroke-miterlimit="10"/>
<path d="M93.3623 141.522C97.0158 141.522 99.9768 138.588 99.9768 134.97L93.3623 134.97L93.3623 141.522Z" stroke="#333333" stroke-width="0.444497" stroke-miterlimit="10" stroke-linecap="square"/>
<path d="M91.7397 134.569L91.7397 141.924L93.3621 141.924L93.3621 134.569L91.7397 134.569Z" stroke="#333333" stroke-width="0.444497" stroke-miterlimit="10" stroke-linecap="square"/>
<path d="M93.3621 141.923L91.7397 141.923L91.7397 134.568L93.3621 134.568L93.3621 141.923Z" fill="white"/>
</g>
</g>
<g clip-path="url(#clip2_664_3414)">
<g opacity="0.5">
<path d="M91.7393 109.772L91.7393 101.152" stroke="#333333" stroke-width="0.666765" stroke-miterlimit="10"/>
<path d="M93.3628 101.152L93.3628 109.772" stroke="#333333" stroke-width="0.666765" stroke-miterlimit="10"/>
<path d="M93.3623 108.728C97.0158 108.728 99.9768 105.795 99.9768 102.177L93.3623 102.177L93.3623 108.728Z" stroke="#333333" stroke-width="0.444497" stroke-miterlimit="10" stroke-linecap="square"/>
<path d="M91.7397 101.775L91.7397 109.13L93.3621 109.13L93.3621 101.775L91.7397 101.775Z" stroke="#333333" stroke-width="0.444497" stroke-miterlimit="10" stroke-linecap="square"/>
<path d="M93.3621 109.129L91.7397 109.129L91.7397 101.775L93.3621 101.775L93.3621 109.129Z" fill="white"/>
</g>
</g>
<g clip-path="url(#clip3_664_3414)">
<g opacity="0.5">
<path d="M161.246 104.823L161.246 96.2025" stroke="#333333" stroke-width="0.666765" stroke-miterlimit="10"/>
<path d="M162.869 96.2025L162.869 104.823" stroke="#333333" stroke-width="0.666765" stroke-miterlimit="10"/>
<path d="M162.868 103.778C166.522 103.778 169.483 100.845 169.483 97.2271L162.868 97.2271L162.868 103.778Z" stroke="#333333" stroke-width="0.444497" stroke-miterlimit="10" stroke-linecap="square"/>
<path d="M161.246 96.8254L161.246 104.18L162.868 104.18L162.868 96.8254L161.246 96.8254Z" stroke="#333333" stroke-width="0.444497" stroke-miterlimit="10" stroke-linecap="square"/>
<path d="M162.868 104.179L161.246 104.179L161.246 96.8248L162.868 96.8248L162.868 104.179Z" fill="white"/>
</g>
</g>
<g clip-path="url(#clip4_664_3414)">
<g opacity="0.5">
<path d="M162.023 104.611L153.403 104.611" stroke="#333333" stroke-width="0.666765" stroke-miterlimit="10"/>
<path d="M153.403 102.987L162.023 102.987" stroke="#333333" stroke-width="0.666765" stroke-miterlimit="10"/>
<path d="M160.979 102.988C160.979 99.3345 158.046 96.3735 154.428 96.3735L154.428 102.988L160.979 102.988Z" stroke="#333333" stroke-width="0.444497" stroke-miterlimit="10" stroke-linecap="square"/>
<path d="M154.026 104.61L161.381 104.61L161.381 102.988L154.026 102.988L154.026 104.61Z" stroke="#333333" stroke-width="0.444497" stroke-miterlimit="10" stroke-linecap="square"/>
<path d="M161.38 102.988L161.38 104.611L154.026 104.611L154.026 102.988L161.38 102.988Z" fill="white"/>
</g>
</g>
<path d="M121.516 146.609V147.847C121.516 148.075 121.331 148.259 121.103 148.259H60.0531C59.8253 148.259 59.6406 148.075 59.6406 147.847L59.6406 146.609" stroke="#1C4C82" stroke-width="0.4125"/>
<rect width="5.3" height="10.3" transform="translate(85.8345 150.631) rotate(-90)" fill="#F2F2F2"/>
<path d="M93.9234 147.331C93.9278 147.327 93.9289 147.322 93.9267 147.318C93.9245 147.313 93.9201 147.311 93.9135 147.311L93.1908 147.311C93.1798 147.311 93.171 147.307 93.1644 147.298C93.1556 147.291 93.1512 147.283 93.1512 147.272L93.1512 147.021C93.1512 147.01 93.1556 147 93.1644 146.991C93.171 146.985 93.1798 146.981 93.1908 146.981L94.3425 146.981C94.3535 146.981 94.3634 146.985 94.3722 146.991C94.3788 147 94.3821 147.01 94.3821 147.021L94.3821 147.285C94.3821 147.305 94.3766 147.321 94.3656 147.334L94.2369 147.509C94.1511 147.624 94.0675 147.74 93.9861 147.859C93.9025 147.978 93.8321 148.085 93.7749 148.179C93.6473 148.39 93.5835 148.565 93.5835 148.704C93.5835 148.792 93.6033 148.861 93.6429 148.912C93.6803 148.962 93.7309 148.988 93.7947 148.988C93.8585 148.988 93.9091 148.962 93.9465 148.912C93.9839 148.863 94.0015 148.798 93.9993 148.717L93.9993 148.588C93.9993 148.577 94.0037 148.567 94.0125 148.559C94.0191 148.552 94.0279 148.549 94.0389 148.549L94.3491 148.549C94.3601 148.549 94.37 148.552 94.3788 148.559C94.3854 148.567 94.3887 148.577 94.3887 148.588L94.3887 148.73C94.3799 148.906 94.3205 149.048 94.2105 149.156C94.0983 149.264 93.9542 149.318 93.7782 149.318C93.6044 149.318 93.4647 149.26 93.3591 149.146C93.2513 149.034 93.1974 148.885 93.1974 148.701C93.1974 148.591 93.2161 148.482 93.2535 148.374C93.2909 148.266 93.3503 148.151 93.4317 148.027C93.4867 147.939 93.5527 147.843 93.6297 147.737C93.7045 147.631 93.754 147.562 93.7782 147.529C93.8442 147.441 93.8926 147.375 93.9234 147.331ZM91.6602 147.928C91.6492 147.928 91.6404 147.924 91.6338 147.915C91.625 147.909 91.6206 147.9 91.6206 147.889L91.6206 147.621C91.6206 147.61 91.625 147.601 91.6338 147.592C91.6404 147.585 91.6492 147.582 91.6602 147.582L91.7592 147.582C91.7702 147.582 91.7757 147.576 91.7757 147.565L91.7757 147.021C91.7757 147.01 91.7801 147 91.7889 146.991C91.7955 146.985 91.8043 146.981 91.8153 146.981L92.1189 146.981C92.1299 146.981 92.1398 146.985 92.1486 146.991C92.1552 147 92.1585 147.01 92.1585 147.021L92.1585 147.565C92.1585 147.576 92.164 147.582 92.175 147.582L92.9868 147.582C92.9978 147.582 93.0077 147.585 93.0165 147.592C93.0231 147.601 93.0264 147.61 93.0264 147.621L93.0264 147.836C93.0264 147.856 93.0242 147.872 93.0198 147.885L92.5611 149.258C92.5545 149.28 92.5402 149.291 92.5182 149.291L92.1882 149.291C92.175 149.291 92.1651 149.287 92.1585 149.278C92.1519 149.271 92.1508 149.26 92.1552 149.245L92.5776 147.948C92.5798 147.935 92.5754 147.928 92.5644 147.928L92.175 147.928C92.164 147.928 92.1585 147.934 92.1585 147.945L92.1585 148.341C92.1585 148.352 92.1552 148.361 92.1486 148.367C92.1398 148.376 92.1299 148.38 92.1189 148.38L91.8153 148.38C91.8043 148.38 91.7955 148.376 91.7889 148.367C91.7801 148.361 91.7757 148.352 91.7757 148.341L91.7757 147.945C91.7757 147.934 91.7702 147.928 91.7592 147.928L91.6602 147.928ZM91.0696 149.291C91.0564 149.291 91.0476 149.287 91.0432 149.278C91.0366 149.271 91.0355 149.26 91.0399 149.245L91.2544 148.605C91.261 148.583 91.2753 148.572 91.2973 148.572L91.525 148.572C91.5536 148.572 91.5646 148.586 91.558 148.615L91.4194 149.255C91.415 149.279 91.4007 149.291 91.3765 149.291L91.0696 149.291ZM90.284 146.945C90.4688 146.945 90.6173 147.003 90.7295 147.12C90.8417 147.239 90.8978 147.394 90.8978 147.585L90.8978 148.687C90.8978 148.879 90.8417 149.033 90.7295 149.149C90.6173 149.268 90.4688 149.328 90.284 149.328C90.097 149.328 89.9474 149.268 89.8352 149.149C89.7208 149.033 89.6636 148.879 89.6636 148.687L89.6636 147.585C89.6636 147.394 89.7208 147.239 89.8352 147.12C89.9474 147.003 90.097 146.945 90.284 146.945ZM90.284 147.278C90.2114 147.278 90.1542 147.304 90.1124 147.354C90.0684 147.407 90.0464 147.476 90.0464 147.562L90.0464 148.71C90.0464 148.796 90.0684 148.864 90.1124 148.915C90.1542 148.968 90.2114 148.994 90.284 148.994C90.3544 148.994 90.4105 148.968 90.4523 148.915C90.4941 148.864 90.515 148.796 90.515 148.71L90.515 147.562C90.515 147.476 90.4941 147.407 90.4523 147.354C90.4105 147.304 90.3544 147.278 90.284 147.278ZM89.0393 149.291C89.0261 149.291 89.0173 149.287 89.0129 149.278C89.0063 149.271 89.0052 149.26 89.0096 149.245L89.2241 148.605C89.2307 148.583 89.245 148.572 89.267 148.572L89.4947 148.572C89.5233 148.572 89.5343 148.586 89.5277 148.615L89.3891 149.255C89.3847 149.279 89.3704 149.291 89.3462 149.291L89.0393 149.291ZM88.4947 149.291C88.4815 149.291 88.4727 149.287 88.4683 149.278C88.4617 149.271 88.4606 149.26 88.465 149.245L88.6795 148.605C88.6861 148.583 88.7004 148.572 88.7224 148.572L88.9501 148.572C88.9787 148.572 88.9897 148.586 88.9831 148.615L88.8445 149.255C88.8401 149.279 88.8258 149.291 88.8016 149.291L88.4947 149.291Z" fill="#1C4C82"/>
<path d="M123.166 146.609L123.166 147.847C123.166 148.075 123.35 148.259 123.578 148.259L188.341 148.259C188.568 148.259 188.753 148.075 188.753 147.847L188.753 146.609" stroke="#1C4C82" stroke-width="0.4125"/>
<rect width="5.3" height="10.3" transform="translate(153.072 150.631) rotate(-90)" fill="#F2F2F2"/>
<path d="M161.161 147.331C161.165 147.327 161.166 147.322 161.164 147.318C161.162 147.313 161.157 147.311 161.151 147.311L160.428 147.311C160.417 147.311 160.408 147.307 160.402 147.298C160.393 147.291 160.388 147.283 160.388 147.272L160.388 147.021C160.388 147.01 160.393 147 160.402 146.991C160.408 146.985 160.417 146.981 160.428 146.981L161.58 146.981C161.591 146.981 161.601 146.985 161.609 146.991C161.616 147 161.619 147.01 161.619 147.021L161.619 147.285C161.619 147.305 161.614 147.321 161.603 147.334L161.474 147.509C161.388 147.624 161.305 147.74 161.223 147.859C161.14 147.978 161.069 148.085 161.012 148.179C160.885 148.39 160.821 148.565 160.821 148.704C160.821 148.792 160.841 148.861 160.88 148.912C160.918 148.962 160.968 148.988 161.032 148.988C161.096 148.988 161.146 148.962 161.184 148.912C161.221 148.863 161.239 148.798 161.237 148.717L161.237 148.588C161.237 148.577 161.241 148.567 161.25 148.559C161.256 148.552 161.265 148.549 161.276 148.549L161.586 148.549C161.597 148.549 161.607 148.552 161.616 148.559C161.623 148.567 161.626 148.577 161.626 148.588L161.626 148.73C161.617 148.906 161.558 149.048 161.448 149.156C161.336 149.264 161.191 149.318 161.015 149.318C160.842 149.318 160.702 149.26 160.596 149.146C160.489 149.034 160.435 148.885 160.435 148.701C160.435 148.591 160.453 148.482 160.491 148.374C160.528 148.266 160.588 148.151 160.669 148.027C160.724 147.939 160.79 147.843 160.867 147.737C160.942 147.631 160.991 147.562 161.015 147.529C161.081 147.441 161.13 147.375 161.161 147.331ZM158.898 147.928C158.887 147.928 158.878 147.924 158.871 147.915C158.862 147.909 158.858 147.9 158.858 147.889L158.858 147.621C158.858 147.61 158.862 147.601 158.871 147.592C158.878 147.585 158.887 147.582 158.898 147.582L158.997 147.582C159.008 147.582 159.013 147.576 159.013 147.565L159.013 147.021C159.013 147.01 159.017 147 159.026 146.991C159.033 146.985 159.042 146.981 159.053 146.981L159.356 146.981C159.367 146.981 159.377 146.985 159.386 146.991C159.393 147 159.396 147.01 159.396 147.021L159.396 147.565C159.396 147.576 159.401 147.582 159.412 147.582L160.224 147.582C160.235 147.582 160.245 147.585 160.254 147.592C160.26 147.601 160.264 147.61 160.264 147.621L160.264 147.836C160.264 147.856 160.262 147.872 160.257 147.885L159.798 149.258C159.792 149.28 159.778 149.291 159.756 149.291L159.426 149.291C159.412 149.291 159.402 149.287 159.396 149.278C159.389 149.271 159.388 149.26 159.393 149.245L159.815 147.948C159.817 147.935 159.813 147.928 159.802 147.928L159.412 147.928C159.401 147.928 159.396 147.934 159.396 147.945L159.396 148.341C159.396 148.352 159.393 148.361 159.386 148.367C159.377 148.376 159.367 148.38 159.356 148.38L159.053 148.38C159.042 148.38 159.033 148.376 159.026 148.367C159.017 148.361 159.013 148.352 159.013 148.341L159.013 147.945C159.013 147.934 159.008 147.928 158.997 147.928L158.898 147.928ZM158.307 149.291C158.294 149.291 158.285 149.287 158.28 149.278C158.274 149.271 158.273 149.26 158.277 149.245L158.492 148.605C158.498 148.583 158.513 148.572 158.535 148.572L158.762 148.572C158.791 148.572 158.802 148.586 158.795 148.615L158.657 149.255C158.652 149.279 158.638 149.291 158.614 149.291L158.307 149.291ZM157.521 146.945C157.706 146.945 157.855 147.003 157.967 147.12C158.079 147.239 158.135 147.394 158.135 147.585L158.135 148.687C158.135 148.879 158.079 149.033 157.967 149.149C157.855 149.268 157.706 149.328 157.521 149.328C157.334 149.328 157.185 149.268 157.073 149.149C156.958 149.033 156.901 148.879 156.901 148.687L156.901 147.585C156.901 147.394 156.958 147.239 157.073 147.12C157.185 147.003 157.334 146.945 157.521 146.945ZM157.521 147.278C157.449 147.278 157.392 147.304 157.35 147.354C157.306 147.407 157.284 147.476 157.284 147.562L157.284 148.71C157.284 148.796 157.306 148.864 157.35 148.915C157.392 148.968 157.449 148.994 157.521 148.994C157.592 148.994 157.648 148.968 157.69 148.915C157.731 148.864 157.752 148.796 157.752 148.71L157.752 147.562C157.752 147.476 157.731 147.407 157.69 147.354C157.648 147.304 157.592 147.278 157.521 147.278ZM156.277 149.291C156.263 149.291 156.255 149.287 156.25 149.278C156.244 149.271 156.243 149.26 156.247 149.245L156.461 148.605C156.468 148.583 156.482 148.572 156.504 148.572L156.732 148.572C156.761 148.572 156.772 148.586 156.765 148.615L156.626 149.255C156.622 149.279 156.608 149.291 156.584 149.291L156.277 149.291ZM155.732 149.291C155.719 149.291 155.71 149.287 155.706 149.278C155.699 149.271 155.698 149.26 155.702 149.245L155.917 148.605C155.923 148.583 155.938 148.572 155.96 148.572L156.187 148.572C156.216 148.572 156.227 148.586 156.22 148.615L156.082 149.255C156.077 149.279 156.063 149.291 156.039 149.291L155.732 149.291Z" fill="#1C4C82"/>
<defs>
<clipPath id="clip0_664_3414">
<rect width="14.4375" height="13.6125" fill="white" transform="matrix(-1 0 0 1 122.547 130.109)"/>
</clipPath>
<clipPath id="clip1_664_3414">
<rect width="9.69375" height="9.28125" fill="white" transform="matrix(4.37114e-08 -1 -1 -4.37114e-08 100.479 143.103)"/>
</clipPath>
<clipPath id="clip2_664_3414">
<rect width="9.69375" height="9.28125" fill="white" transform="matrix(4.37114e-08 -1 -1 -4.37114e-08 100.479 110.309)"/>
</clipPath>
<clipPath id="clip3_664_3414">
<rect width="9.69375" height="9.28125" fill="white" transform="matrix(4.37114e-08 -1 -1 -4.37114e-08 169.985 105.359)"/>
</clipPath>
<clipPath id="clip4_664_3414">
<rect width="9.69375" height="9.28125" fill="white" transform="matrix(-1 8.74228e-08 8.74228e-08 1 162.56 95.8718)"/>
</clipPath>
</defs>
</svg>
