<svg width="40" height="40" viewBox="0 0 40 40" fill="none" xmlns="http://www.w3.org/2000/svg">
<path d="M19.9999 36.6666C29.2047 36.6666 36.6666 29.2047 36.6666 20C36.6666 10.7952 29.2047 3.33331 19.9999 3.33331C10.7952 3.33331 3.33325 10.7952 3.33325 20C3.33325 29.2047 10.7952 36.6666 19.9999 36.6666Z" fill="white" stroke="#1C4C82" stroke-width="2.5" stroke-linecap="round" stroke-linejoin="round"/>
<path d="M15.1501 15C15.542 13.8861 16.3154 12.9468 17.3334 12.3485C18.3514 11.7502 19.5483 11.5315 20.7121 11.7312C21.8759 11.9308 22.9315 12.5358 23.6919 13.4392C24.4524 14.3425 24.8686 15.4858 24.8668 16.6666C24.8668 20 19.8668 21.6666 19.8668 21.6666" stroke="#1C4C82" stroke-width="2.5" stroke-linecap="round" stroke-linejoin="round"/>
<path d="M20 28.3333H20.0153" stroke="#1C4C82" stroke-width="2.5" stroke-linecap="round" stroke-linejoin="round"/>
</svg>
