<svg width="16" height="17" viewBox="0 0 16 17" fill="none" xmlns="http://www.w3.org/2000/svg">
<path d="M2.66675 15.0343V3.03432C2.66675 2.70099 2.80008 2.36765 3.06675 2.10099C3.33341 1.83432 3.66675 1.70099 4.00008 1.70099H9.66673L13.3334 5.36764V13.701C13.3334 14.0343 13.2001 14.3676 12.9334 14.6343C12.6667 14.9009 12.3334 15.0343 12.0001 15.0343H10.6667" stroke="white" stroke-width="1.33333" stroke-linecap="round" stroke-linejoin="round"/>
<path d="M9.33344 1.70099V5.70098H13.3334" stroke="white" stroke-width="1.33333" stroke-linecap="round" stroke-linejoin="round"/>
<path d="M6.66683 15.0343C7.4032 15.0343 8.00015 14.4373 8.00015 13.7009C8.00015 12.9646 7.4032 12.3676 6.66683 12.3676C5.93045 12.3676 5.3335 12.9646 5.3335 13.7009C5.3335 14.4373 5.93045 15.0343 6.66683 15.0343Z" stroke="white" stroke-width="1.33333" stroke-linecap="round" stroke-linejoin="round"/>
<path d="M6.66675 5.03434V4.36768" stroke="white" stroke-width="1.33333" stroke-linecap="round" stroke-linejoin="round"/>
<path d="M6.66675 8.36765V7.70099" stroke="white" stroke-width="1.33333" stroke-linecap="round" stroke-linejoin="round"/>
<path d="M6.66675 12.3676V11.0343" stroke="white" stroke-width="1.33333" stroke-linecap="round" stroke-linejoin="round"/>
</svg>
