<svg width="25" height="26" viewBox="0 0 25 26" fill="none" xmlns="http://www.w3.org/2000/svg">
<rect y="0.367676" width="25" height="25" rx="4" fill="#7794B4"/>
<path d="M10.0001 5.36768H5.83339C5.37316 5.36768 5.00006 5.74077 5.00006 6.20101V10.3677C5.00006 10.8279 5.37316 11.201 5.83339 11.201H10.0001C10.4603 11.201 10.8334 10.8279 10.8334 10.3677V6.20101C10.8334 5.74077 10.4603 5.36768 10.0001 5.36768Z" stroke="white" stroke-width="1.66667" stroke-linecap="round" stroke-linejoin="round"/>
<path d="M19.1667 5.36768H15.0001C14.5398 5.36768 14.1667 5.74077 14.1667 6.20101V10.3677C14.1667 10.8279 14.5398 11.201 15.0001 11.201H19.1667C19.627 11.201 20.0001 10.8279 20.0001 10.3677V6.20101C20.0001 5.74077 19.627 5.36768 19.1667 5.36768Z" stroke="white" stroke-width="1.66667" stroke-linecap="round" stroke-linejoin="round"/>
<path d="M19.1667 14.5344H15.0001C14.5398 14.5344 14.1667 14.9075 14.1667 15.3677V19.5344C14.1667 19.9946 14.5398 20.3677 15.0001 20.3677H19.1667C19.627 20.3677 20.0001 19.9946 20.0001 19.5344V15.3677C20.0001 14.9075 19.627 14.5344 19.1667 14.5344Z" stroke="white" stroke-width="1.66667" stroke-linecap="round" stroke-linejoin="round"/>
<path d="M10.0001 14.5344H5.83339C5.37316 14.5344 5.00006 14.9075 5.00006 15.3677V19.5344C5.00006 19.9946 5.37316 20.3677 5.83339 20.3677H10.0001C10.4603 20.3677 10.8334 19.9946 10.8334 19.5344V15.3677C10.8334 14.9075 10.4603 14.5344 10.0001 14.5344Z" stroke="white" stroke-width="1.66667" stroke-linecap="round" stroke-linejoin="round"/>
</svg>
